<svg width="24" height="24" viewBox="0 0 24 24" fill="none" xmlns="http://www.w3.org/2000/svg">
<path d="M0 4C0 1.79086 1.79086 0 4 0H20C22.2091 0 24 1.79086 24 4V20C24 22.2091 22.2091 24 20 24H4C1.79086 24 0 22.2091 0 20V4Z" fill="#CCCCCC" fill-opacity="0.4"/>
<path d="M8.64844 8.22461L5.82422 16H4.66992L7.92188 7.46875H8.66602L8.64844 8.22461ZM11.0156 16L8.18555 8.22461L8.16797 7.46875H8.91211L12.1758 16H11.0156ZM10.8691 12.8418V13.7676H6.07617V12.8418H10.8691Z" fill="black" fill-opacity="0.8"/>
<path d="M17.0645 14.916V11.6523C17.0645 11.4023 17.0137 11.1855 16.9121 11.002C16.8145 10.8145 16.666 10.6699 16.4668 10.5684C16.2676 10.4668 16.0215 10.416 15.7285 10.416C15.4551 10.416 15.2148 10.4629 15.0078 10.5566C14.8047 10.6504 14.6445 10.7734 14.5273 10.9258C14.4141 11.0781 14.3574 11.2422 14.3574 11.418H13.2734C13.2734 11.1914 13.332 10.9668 13.4492 10.7441C13.5664 10.5215 13.7344 10.3203 13.9531 10.1406C14.1758 9.95703 14.4414 9.8125 14.75 9.70703C15.0625 9.59766 15.4102 9.54297 15.793 9.54297C16.2539 9.54297 16.6602 9.62109 17.0117 9.77734C17.3672 9.93359 17.6445 10.1699 17.8438 10.4863C18.0469 10.7988 18.1484 11.1914 18.1484 11.6641V14.6172C18.1484 14.8281 18.166 15.0527 18.2012 15.291C18.2402 15.5293 18.2969 15.7344 18.3711 15.9062V16H17.2402C17.1855 15.875 17.1426 15.709 17.1113 15.502C17.0801 15.291 17.0645 15.0957 17.0645 14.916ZM17.252 12.1562L17.2637 12.918H16.168C15.8594 12.918 15.584 12.9434 15.3418 12.9941C15.0996 13.041 14.8965 13.1133 14.7324 13.2109C14.5684 13.3086 14.4434 13.4316 14.3574 13.5801C14.2715 13.7246 14.2285 13.8945 14.2285 14.0898C14.2285 14.2891 14.2734 14.4707 14.3633 14.6348C14.4531 14.7988 14.5879 14.9297 14.7676 15.0273C14.9512 15.1211 15.1758 15.168 15.4414 15.168C15.7734 15.168 16.0664 15.0977 16.3203 14.957C16.5742 14.8164 16.7754 14.6445 16.9238 14.4414C17.0762 14.2383 17.1582 14.041 17.1699 13.8496L17.6328 14.3711C17.6055 14.5352 17.5312 14.7168 17.4102 14.916C17.2891 15.1152 17.127 15.3066 16.9238 15.4902C16.7246 15.6699 16.4863 15.8203 16.209 15.9414C15.9355 16.0586 15.627 16.1172 15.2832 16.1172C14.8535 16.1172 14.4766 16.0332 14.1523 15.8652C13.832 15.6973 13.582 15.4727 13.4023 15.1914C13.2266 14.9062 13.1387 14.5879 13.1387 14.2363C13.1387 13.8965 13.2051 13.5977 13.3379 13.3398C13.4707 13.0781 13.6621 12.8613 13.9121 12.6895C14.1621 12.5137 14.4629 12.3809 14.8145 12.291C15.166 12.2012 15.5586 12.1562 15.9922 12.1562H17.252Z" fill="black" fill-opacity="0.8"/>
</svg>
